<svg width="56" height="66" viewBox="0 0 56 66" fill="none" xmlns="http://www.w3.org/2000/svg" preserveAspectRatio="none">
<path d="M30.166 59.9228H21.0199C20.4135 59.9228 19.8319 59.6377 19.4031 59.1304C18.9743 58.623 18.7334 57.9349 18.7334 57.2174V40.4444H14.1604C13.554 40.4444 12.9724 40.1594 12.5436 39.6521C12.1148 39.1447 11.8739 38.4566 11.8739 37.7391V28C11.8739 27.2825 12.1148 26.5944 12.5436 26.087C12.9724 25.5797 13.554 25.2946 14.1604 25.2946H18.7334V20.6956C18.8937 16.5736 20.4269 12.6944 22.9977 9.90618C25.5686 7.11793 28.9679 5.64747 32.4525 5.81631H39.312C39.9185 5.81631 40.5001 6.10133 40.9289 6.60868C41.3577 7.11603 41.5986 7.80414 41.5986 8.52163V18.2608C41.5986 18.9783 41.3577 19.6664 40.9289 20.1737C40.5001 20.6811 39.9185 20.9661 39.312 20.9661H32.4525V25.2946H39.312C39.6651 25.2915 40.014 25.3851 40.3313 25.5681C40.6487 25.7512 40.9259 26.0187 41.1413 26.3497C41.3542 26.6857 41.4982 27.0757 41.5617 27.489C41.6252 27.9022 41.6065 28.3272 41.5071 28.7304L39.2206 38.4696C39.0823 39.0547 38.7815 39.5678 38.3667 39.926C37.9519 40.2843 37.4473 40.4669 36.9341 40.4444H32.4525V57.2174C32.4525 57.9349 32.2116 58.623 31.7828 59.1304C31.354 59.6377 30.7724 59.9228 30.166 59.9228ZM23.3065 54.5121H27.8795V37.7391C27.8795 37.0216 28.1204 36.3335 28.5492 35.8262C28.978 35.3188 29.5596 35.0338 30.166 35.0338H35.2878L36.2939 30.7053H30.166C29.5596 30.7053 28.978 30.4203 28.5492 29.9129C28.1204 29.4056 27.8795 28.7175 27.8795 28V20.6956C27.9382 19.308 28.4458 18.0003 29.2971 17.0434C30.1485 16.0865 31.2783 15.5537 32.4525 15.5555H37.0255V11.227H32.4525C30.1816 11.0633 27.9477 11.9656 26.2354 13.7382C24.5232 15.5108 23.4708 18.0107 23.3065 20.6956V28C23.3065 28.7175 23.0656 29.4056 22.6368 29.9129C22.208 30.4203 21.6264 30.7053 21.0199 30.7053H16.4469V35.0338H21.0199C21.6264 35.0338 22.208 35.3188 22.6368 35.8262C23.0656 36.3335 23.3065 37.0216 23.3065 37.7391V54.5121Z" fill="#18978F"/>
</svg>
