<svg width="56" height="63" viewBox="0 0 56 63" fill="none" xmlns="http://www.w3.org/2000/svg" preserveAspectRatio="none">
<path d="M46.8135 57.1281H42.9781C41.7599 57.1281 40.5916 56.581 39.7301 55.6073C38.8687 54.6335 38.3848 53.3128 38.3848 51.9357V37.9942C38.4053 37.4474 38.2591 36.9092 37.9707 36.4697C37.6822 36.0302 37.269 35.716 36.8001 35.5797C36.5273 35.5327 36.2488 35.5525 35.9834 35.6376C35.7179 35.7227 35.4717 35.8711 35.2614 36.073C35.0448 36.2807 34.871 36.5393 34.752 36.8307C34.633 37.1222 34.5717 37.4395 34.5724 37.7605V51.9357C34.5724 53.3128 34.0884 54.6335 33.227 55.6073C32.3656 56.581 31.1973 57.1281 29.9791 57.1281H26.1437C24.9254 57.1281 23.7571 56.581 22.8957 55.6073C22.0343 54.6335 21.5504 53.3128 21.5504 51.9357V37.7605C21.5504 35.5444 21.9365 33.35 22.6867 31.3026C23.4369 29.2552 24.5365 27.3949 25.9227 25.8279C27.3089 24.2609 28.9546 23.0179 30.7658 22.1698C32.577 21.3217 34.5182 20.8853 36.4786 20.8853C38.439 20.8853 40.3802 21.3217 42.1914 22.1698C44.0025 23.0179 45.6482 24.2609 47.0344 25.8279C48.4206 27.3949 49.5203 29.2552 50.2705 31.3026C51.0207 33.35 51.4068 35.5444 51.4068 37.7605V51.9357C51.4068 53.3128 50.9229 54.6335 50.0615 55.6073C49.2001 56.581 48.0317 57.1281 46.8135 57.1281ZM36.4786 30.3614C36.838 30.3357 37.1986 30.3357 37.558 30.3614C39.0999 30.6966 40.4882 31.6349 41.4792 33.0116C42.4703 34.3883 43.001 36.1155 42.9781 37.8903V51.9357H46.8135V37.7605C46.8135 34.662 45.7247 31.6904 43.7865 29.4995C41.8483 27.3085 39.2196 26.0776 36.4786 26.0776C33.7376 26.0776 31.1089 27.3085 29.1707 29.4995C27.2325 31.6904 26.1437 34.662 26.1437 37.7605V51.9357H29.9791V37.7605C29.979 35.8071 30.6623 33.9329 31.8799 32.5468C33.0975 31.1607 34.7506 30.3751 36.4786 30.3614Z" fill="#18978F"/>
<path d="M14.6605 57.1277H10.0672C8.84896 57.1277 7.68063 56.5806 6.81922 55.6069C5.95781 54.6331 5.47388 53.3124 5.47388 51.9353V25.9734C5.47388 24.5963 5.95781 23.2756 6.81922 22.3018C7.68063 21.3281 8.84896 20.781 10.0672 20.781H14.6605C15.8787 20.781 17.047 21.3281 17.9084 22.3018C18.7698 23.2756 19.2538 24.5963 19.2538 25.9734V51.9353C19.2538 53.3124 18.7698 54.6331 17.9084 55.6069C17.047 56.5806 15.8787 57.1277 14.6605 57.1277ZM10.0672 25.9734V51.9353H14.6605V25.9734H10.0672Z" fill="#18978F"/>
<path d="M12.3638 18.186C11.0011 18.186 9.66903 17.7292 8.53598 16.8734C7.40293 16.0176 6.51983 14.8012 5.99835 13.378C5.47686 11.9548 5.34042 10.3888 5.60627 8.87799C5.87212 7.36715 6.52832 5.97936 7.4919 4.89011C8.45548 3.80086 9.68315 3.05907 11.0197 2.75855C12.3562 2.45802 13.7415 2.61226 15.0005 3.20176C16.2595 3.79126 17.3355 4.78954 18.0926 6.07037C18.8497 7.35119 19.2538 8.85703 19.2538 10.3975C19.2538 12.4631 18.5279 14.4442 17.2358 15.9048C15.9436 17.3655 14.1912 18.186 12.3638 18.186ZM12.3638 7.80127C11.9096 7.80127 11.4656 7.95354 11.0879 8.23881C10.7102 8.52408 10.4158 8.92955 10.242 9.40395C10.0682 9.87834 10.0227 10.4003 10.1113 10.904C10.1999 11.4076 10.4187 11.8702 10.7399 12.2332C11.061 12.5963 11.4703 12.8436 11.9158 12.9438C12.3613 13.0439 12.8231 12.9925 13.2427 12.796C13.6624 12.5995 14.0211 12.2668 14.2734 11.8398C14.5258 11.4129 14.6605 10.9109 14.6605 10.3975C14.6605 9.70891 14.4185 9.04856 13.9878 8.56168C13.5571 8.0748 12.9729 7.80127 12.3638 7.80127Z" fill="#18978F"/>
</svg>
