<svg width="56" height="50" viewBox="0 0 56 50" fill="none" xmlns="http://www.w3.org/2000/svg" preserveAspectRatio="none">
<path d="M27.9847 12.0488C20.1376 12.0488 13.8081 17.7104 13.8081 24.7294C13.8081 31.7484 20.1376 37.41 27.9847 37.41C35.8318 37.41 42.1612 31.7484 42.1612 24.7294C42.1612 17.7104 35.8318 12.0488 27.9847 12.0488ZM27.9847 32.9734C22.9137 32.9734 18.7681 29.2763 18.7681 24.7294C18.7681 20.1825 22.9014 16.4853 27.9847 16.4853C33.068 16.4853 37.2013 20.1825 37.2013 24.7294C37.2013 29.2763 33.0557 32.9734 27.9847 32.9734ZM46.0478 11.5301C46.0478 13.1745 44.5672 14.4878 42.7411 14.4878C40.9028 14.4878 39.4345 13.1634 39.4345 11.5301C39.4345 9.89672 40.9151 8.57237 42.7411 8.57237C44.5672 8.57237 46.0478 9.89672 46.0478 11.5301ZM55.4371 14.5319C55.2274 10.5699 54.2156 7.06041 50.9707 4.16893C47.7381 1.27744 43.8146 0.372472 39.3852 0.17382C34.82 -0.0579401 21.137 -0.0579401 16.5719 0.17382C12.1548 0.361436 8.2313 1.2664 4.98636 4.15789C1.74143 7.04938 0.742036 10.5589 0.519949 14.5209C0.260847 18.6043 0.260847 30.8434 0.519949 34.9268C0.729697 38.8888 1.74143 42.3983 4.98636 45.2898C8.2313 48.1813 12.1425 49.0863 16.5719 49.2849C21.137 49.5167 34.82 49.5167 39.3852 49.2849C43.8146 49.0973 47.7381 48.1923 50.9707 45.2898C54.2033 42.3983 55.215 38.8888 55.4371 34.9268C55.6962 30.8434 55.6962 18.6153 55.4371 14.5319ZM49.5395 39.3082C48.5771 41.4713 46.714 43.1378 44.2834 44.0096C40.6437 45.3009 32.0069 45.0029 27.9847 45.0029C23.9625 45.0029 15.3134 45.2898 11.686 44.0096C9.2677 43.1488 7.40464 41.4823 6.42993 39.3082C4.98636 36.0525 5.31949 28.3272 5.31949 24.7294C5.31949 21.1316 4.9987 13.3952 6.42993 10.1505C7.3923 7.98745 9.25537 6.32099 11.686 5.44913C15.3257 4.15789 23.9625 4.45587 27.9847 4.45587C32.0069 4.45587 40.656 4.16893 44.2834 5.44913C46.7017 6.30995 48.5648 7.97642 49.5395 10.1505C50.983 13.4062 50.6499 21.1316 50.6499 24.7294C50.6499 28.3272 50.983 36.0636 49.5395 39.3082Z" fill="#18978F"/>
</svg>
