<?xml version="1.0" standalone="no"?>
<!DOCTYPE svg PUBLIC "-//W3C//DTD SVG 20010904//EN"
 "http://www.w3.org/TR/2001/REC-SVG-20010904/DTD/svg10.dtd">
<svg version="1.0" xmlns="http://www.w3.org/2000/svg"
 width="500.000000pt" height="500.000000pt" viewBox="0 0 500.000000 500.000000"
 preserveAspectRatio="xMidYMid meet">
<metadata>
Created by potrace 1.16, written by Peter Selinger 2001-2019
</metadata>
<g transform="translate(0.000000,500.000000) scale(0.100000,-0.100000)"
fill="#000000" stroke="none">
<path d="M1669 3587 c-35 -23 -54 -54 -63 -97 -3 -15 -18 -32 -39 -43 -71 -39
-89 -144 -37 -216 17 -23 38 -45 46 -48 13 -5 13 -8 -1 -29 -9 -14 -15 -46
-15 -83 0 -49 4 -65 24 -88 24 -27 24 -28 6 -48 -30 -33 -34 -67 -10 -98 12
-15 31 -27 43 -27 19 -1 20 -2 7 -13 -58 -47 -65 -157 -15 -223 15 -20 36 -39
47 -42 19 -5 25 -22 8 -22 -14 0 -49 -78 -50 -108 0 -35 35 -96 65 -112 26
-14 26 -15 7 -30 -10 -9 -25 -26 -31 -39 -17 -31 2 -76 39 -93 24 -10 26 -14
13 -23 -8 -6 -17 -29 -20 -52 -5 -36 -2 -45 21 -67 27 -24 96 -43 116 -31 6 3
10 -3 10 -15 0 -28 46 -119 79 -153 33 -36 107 -69 181 -82 68 -12 171 38 184
89 5 19 11 21 45 18 75 -7 151 65 151 142 0 42 -24 96 -43 96 -6 0 0 10 15 23
34 28 68 79 93 139 l19 46 21 -21 c12 -12 30 -27 41 -33 16 -10 17 -15 7 -33
-29 -48 -2 -101 52 -105 17 -1 24 -5 20 -15 -14 -36 19 -113 75 -173 48 -53
62 -62 100 -67 42 -6 45 -8 51 -43 6 -40 33 -86 54 -94 22 -9 56 15 66 46 l10
28 36 -24 c70 -47 154 -17 174 62 10 39 15 44 45 50 90 17 142 180 89 283 -11
22 -9 27 23 55 38 33 62 80 62 121 0 28 -24 80 -47 104 -13 13 -13 16 3 28 57
42 73 140 30 189 l-23 28 23 19 c32 25 50 62 62 125 11 59 -1 137 -25 164 -13
14 -12 17 9 23 42 13 58 35 58 80 0 30 -6 47 -21 60 -20 19 -20 19 13 35 30
14 33 19 36 66 3 45 0 54 -22 72 l-26 20 24 6 c48 12 45 106 -4 131 -16 8 -35
15 -43 15 -8 0 -19 19 -26 43 -16 52 -44 83 -87 97 -44 15 -95 -1 -128 -40
-22 -27 -24 -27 -29 -10 -3 11 -17 24 -31 30 -48 18 -93 -14 -102 -71 -6 -33
-9 -37 -25 -29 -40 22 -119 0 -133 -35 -9 -24 -7 -78 3 -94 7 -11 -2 -20 -39
-37 -42 -19 -50 -28 -56 -58 -8 -46 11 -95 43 -107 l24 -9 -25 -32 c-13 -18
-34 -67 -45 -108 -11 -41 -20 -68 -20 -59 -1 23 -56 69 -92 76 -23 4 -31 12
-36 35 -10 49 -64 82 -143 86 -63 4 -69 2 -92 -23 -24 -26 -27 -26 -61 -14
-30 11 -41 10 -62 -1 -24 -13 -26 -19 -23 -62 2 -38 0 -48 -13 -48 -20 0 -69
-23 -69 -32 0 -5 -4 -8 -10 -8 -5 0 -10 18 -10 39 0 28 -8 49 -25 69 -24 29
-25 31 -6 37 24 7 45 57 37 90 -3 13 -16 34 -28 45 -17 16 -19 23 -10 32 7 7
12 24 12 39 0 35 -32 59 -78 59 -20 0 -31 4 -27 10 11 17 -5 69 -28 94 -50 53
-147 74 -195 40 -20 -14 -22 -14 -22 3 0 25 -34 74 -62 89 -38 22 -110 17
-149 -9z"/>
<path d="M2525 1630 c-27 -13 -48 -34 -65 -65 -13 -25 -27 -45 -30 -45 -3 1
-17 18 -32 40 -15 21 -39 46 -53 56 -31 21 -110 31 -119 15 -4 -6 -17 -11 -28
-11 -12 0 -18 -3 -15 -6 7 -7 -29 -63 -48 -76 -15 -11 -25 -10 -25 5 0 23 -55
74 -94 87 -53 17 -102 7 -137 -30 -16 -16 -27 -30 -24 -30 3 0 -4 -10 -15 -22
-21 -23 -21 -23 -36 -3 -56 76 -100 103 -149 91 -20 -5 -25 -13 -25 -39 0 -29
5 -35 38 -50 27 -12 41 -26 50 -50 17 -48 44 -69 95 -74 39 -5 48 -2 76 24 17
17 31 35 31 40 0 5 11 20 25 33 31 30 52 21 77 -33 29 -59 115 -88 152 -52 8
8 19 15 25 15 6 0 11 5 11 11 0 16 54 79 68 79 7 0 26 -22 42 -48 60 -98 149
-98 206 -1 35 61 57 61 97 1 43 -63 68 -77 124 -66 40 8 51 16 80 59 19 28 41
51 48 53 7 2 21 -9 32 -23 50 -73 72 -89 123 -89 56 0 69 9 105 70 28 47 59
58 70 24 3 -11 11 -20 16 -20 5 0 9 -5 9 -11 0 -6 14 -24 31 -40 57 -53 130
-35 169 42 13 25 34 46 61 59 34 18 40 25 37 48 -2 18 -11 29 -29 36 -36 12
-116 -26 -132 -63 -19 -43 -30 -42 -72 3 -22 24 -50 49 -62 55 -49 25 -122 6
-153 -39 -35 -52 -45 -61 -63 -55 -9 4 -17 13 -17 21 0 8 -5 14 -10 14 -6 0
-9 3 -8 8 7 34 -82 72 -137 58 -25 -6 -84 -59 -104 -93 -10 -16 -14 -15 -40
17 -16 19 -27 38 -24 43 5 8 -44 31 -88 42 -15 3 -40 -2 -64 -15z"/>
</g>
</svg>
